<svg id="Layer_1" data-name="Layer 1" xmlns="http://www.w3.org/2000/svg" viewBox="0 0 720 720"><defs><style>.cls-1{fill:#fff;}</style></defs><path class="cls-1" d="M656,0H625a12,12,0,0,0,0,24h29a42,42,0,0,1,42,42V94c0,7.18,5.37,13,12,13a12,12,0,0,0,12-12V64A64,64,0,0,0,656,0Z"/><path class="cls-1" d="M720,656V625a12,12,0,0,0-24,0v29a42,42,0,0,1-42,42H626c-7.18,0-13,5.37-13,12a12,12,0,0,0,12,12h31A64,64,0,0,0,720,656Z"/><path class="cls-1" d="M64,720H95a12,12,0,0,0,0-24H66a42,42,0,0,1-42-42V626c0-7.18-5.37-13-12-13A12,12,0,0,0,0,625v31A64,64,0,0,0,64,720Z"/><path class="cls-1" d="M0,64V95a12,12,0,0,0,24,0V66A42,42,0,0,1,66,24H94c7.18,0,13-5.37,13-12A12,12,0,0,0,95,0H64A64,64,0,0,0,0,64Z"/></svg>